{"title":"Chhutir Phande (1975)  -  Bengali  -  DVD RIP  -  Comedy","uid":7371105,"size":733222848,"categoryP":"video","categoryS":"movies","magnet":"?xt=urn:btih:df2ec8d7c0d1642f48c0be8109361a8824087e70&amp;dn=Chhutir+Phande+%281975%29++-++Bengali++-++DVD+RIP++-++Comedy++&amp;tr=udp%3A%2F%2Ftracker.openbittorrent.com%3A80&amp;tr=udp%3A%2F%2Fopen.demonii.com%3A1337&amp;tr=udp%3A%2F%2Ftracker.coppersurfer.tk%3A6969&amp;tr=udp%3A%2F%2Fexodus.desync.com%3A6969","seeders":0,"leechers":1,"uploader":"abu2012","files":-1,"time":1340232696,"description":"\n\n\nUpcoming Movies :\n\n\n\n\n1. 2,20 Ka Zamana Khatam (1932)\n\n2. Bholebaba'r TV Keu Dekhe Na (1976)\n\n3. Chele Bholano Chara, Kabita, TV, Sangit, ACK, IJC Diye Ar Katdin ? (1943)\n\n4. Supuri'r Mato Money Kharoch Karo Dadara (1957)\n\n5. Tag Mor Parom Dhrmo, Aposh Kore Mukhe Papos Ghoste Sikechi (1960)\n\n6. Goray Gondogol (2012) - Original DVD RIP\n\n7. Chatrak (2011)\n\n8. Aparajita Tumi (2012) - Original DVD RIP\n\n9. Bedroom (2012) - Original DVD RIP\n\n\n\nScreens :\n\n\n &lt;a href=&quot;\nhttp://i.imgur.com/m2xWk.jpg&quot; rel=&quot;nofollow&quot; target=&quot;_NEW&quot;&gt;\nhttp://i.imgur.com/m2xWk.jpg&lt;/a&gt;\n &lt;a href=&quot;\nhttp://i.imgur.com/1My6N.jpg&quot; rel=&quot;nofollow&quot; target=&quot;_NEW&quot;&gt;\nhttp://i.imgur.com/1My6N.jpg&lt;/a&gt;\n\n\n\nExtra Screens :\n\n\n &lt;a href=&quot;\nhttp://i.imgur.com/NWuqW.jpg&quot; rel=&quot;nofollow&quot; target=&quot;_NEW&quot;&gt;\nhttp://i.imgur.com/NWuqW.jpg&lt;/a&gt;\n &lt;a href=&quot;\nhttp://i.imgur.com/JwxaP.jpg&quot; rel=&quot;nofollow&quot; target=&quot;_NEW&quot;&gt;\nhttp://i.imgur.com/JwxaP.jpg&lt;/a&gt;\n &lt;a href=&quot;\nhttp://i.imgur.com/A2za3.jpg&quot; rel=&quot;nofollow&quot; target=&quot;_NEW&quot;&gt;\nhttp://i.imgur.com/A2za3.jpg&lt;/a&gt;\n\n\n\nMedia Info :\n\n\n\nFormat                           : AVI\nFormat/Info                      : Audio Video Interleave\nFile size                        : 699 MiB\nDuration                         : 2h 6mn\nOverall bit rate                 : 774 Kbps\n\nVideo\nID                               : 0\nFormat                           : MPEG-4 Visual\nFormat settings, GMC             : No warppoints\nFormat settings, Matrix          : Custom\nCodec ID                         : XVID\nCodec ID/Hint                    : XviD\nDuration                         : 2h 6mn\nBit rate                         : 658 Kbps\nWidth                            : 512 pixels\nHeight                           : 384 pixels\nDisplay aspect ratio             : 4:3\nFrame rate                       : 29.970 fps\nColor space                      : YUV\nChroma subsampling               : 4:2:0\nBit depth                        : 8 bits\nScan type                        : Progressive\nCompression mode                 : Lossy\nBits/(Pixel*Frame)               : 0.112\nStream size                      : 593 MiB (85%)\n\nAudio\nID                               : 1\nFormat                           : MPEG Audio\nFormat version                   : Version 1\nFormat profile                   : Layer 3\nMode                             : Joint stereo\nMode extension                   : MS Stereo\nCodec ID                         : 55\nCodec ID/Hint                    : MP3\nDuration                         : 2h 6mn\nBit rate mode                    : Variable\nBit rate                         : 103 Kbps\nNominal bit rate                 : 128 Kbps\nChannel(s)                       : 2 channels\nSampling rate                    : 48.0 KHz\nCompression mode                 : Lossy\nDelay relative to video          : 48ms\nStream size                      : 92.7 MiB (13%)\nAlignment                        : Split accross interleaves\n\n\n\n\n\n","torrent":{"xt":"urn:btih:df2ec8d7c0d1642f48c0be8109361a8824087e70","amp;dn":"Chhutir+Phande+%281975%29++-++Bengali++-++DVD+RIP++-++Comedy++","amp;tr":["udp%3A%2F%2Ftracker.openbittorrent.com%3A80","udp%3A%2F%2Fopen.demonii.com%3A1337","udp%3A%2F%2Ftracker.coppersurfer.tk%3A6969","udp%3A%2F%2Fexodus.desync.com%3A6969"],"infoHash":"df2ec8d7c0d1642f48c0be8109361a8824087e70","infoHashBuffer":{"type":"Buffer","data":[223,46,200,215,192,209,100,47,72,192,190,129,9,54,26,136,36,8,126,112]},"announce":[],"urlList":[]}}